<svg xmlns="http://www.w3.org/2000/svg" viewBox="0 0 467.21 113.96"><defs><style>.cls-1,.cls-7{fill:#7ac7e9;}.cls-2{fill:#f5b3d1;}.cls-3{fill:#ee98c0;}.cls-3,.cls-5,.cls-6,.cls-7,.cls-9{fill-rule:evenodd;}.cls-4,.cls-5{fill:#81d0f3;}.cls-6,.cls-8{fill:#9be5f9;}.cls-9{fill:#ffe9f4;}</style></defs><title>1</title><g id="Слой_2" data-name="Слой 2"><g id="Слой_1-2" data-name="Слой 1"><path class="cls-1" d="M205.48,69.13a22.73,22.73,0,0,1-8.07,5.49A33.11,33.11,0,0,1,188.85,77a97.82,97.82,0,0,1-11.22.49H160.85V17.24c14.2.08,17,.08,17,.08,8.55,0,15.41,1.29,20.41,4a25.86,25.86,0,0,1,11.06,11,33.74,33.74,0,0,1,3.63,15.9A35.27,35.27,0,0,1,211,60.1,25.93,25.93,0,0,1,205.48,69.13ZM194.66,27.25a16.59,16.59,0,0,0-7.34-4.68,38.57,38.57,0,0,0-10.65-1.21c-1.86,0-3.8.08-5.57.16V73.41H179c4.92,0,9-.64,11.94-1.93s5.57-3.8,7.59-7.67,3.14-8.8,3.14-14.93a40.82,40.82,0,0,0-1.85-12.75A21.75,21.75,0,0,0,194.66,27.25Z"/><path class="cls-1" d="M233.89,36.93a4.64,4.64,0,0,1-3.39-1.45A4.94,4.94,0,0,1,229.13,32a4.57,4.57,0,0,1,1.37-3.31,4.64,4.64,0,0,1,3.39-1.45,4.4,4.4,0,0,1,3.39,1.45A4.57,4.57,0,0,1,238.65,32a4.94,4.94,0,0,1-1.37,3.47A4.4,4.4,0,0,1,233.89,36.93Zm-3.63,40.52V44.52h7.26V77.45Z"/><path class="cls-1" d="M275.62,77.45V58a41.92,41.92,0,0,0-.25-5.49,3.64,3.64,0,0,0-1.53-2.34,4.58,4.58,0,0,0-3.23-1.05c-3.31,0-6.29,2.83-8.31,5.17V77.45h-7.18V44.52h7.18v4.6a14.13,14.13,0,0,1,10.25-4.6,11.38,11.38,0,0,1,6.54,1.86A8,8,0,0,1,282.64,52a10,10,0,0,1,.24,2.5V77.45Z"/><path class="cls-1" d="M368,69.13a22.81,22.81,0,0,1-8.07,5.49A33.21,33.21,0,0,1,351.32,77a97.94,97.94,0,0,1-11.22.49H323.32V17.24c14.2.08,16.94.08,16.94.08,8.56,0,15.42,1.29,20.42,4a25.91,25.91,0,0,1,11.06,11,33.74,33.74,0,0,1,3.63,15.9,35.27,35.27,0,0,1-1.94,11.87A25.76,25.76,0,0,1,368,69.13ZM357.13,27.25a16.59,16.59,0,0,0-7.34-4.68,38.65,38.65,0,0,0-10.66-1.21c-1.85,0-3.79.08-5.56.16V73.41h7.9c4.93,0,9-.64,11.95-1.93s5.57-3.8,7.59-7.67,3.14-8.8,3.14-14.93a40.82,40.82,0,0,0-1.85-12.75A21.75,21.75,0,0,0,357.13,27.25Z"/><path class="cls-1" d="M406.69,78.66a15,15,0,0,1-11-4.52c-3.06-3.07-4.6-7.18-4.6-12.19a16.55,16.55,0,0,1,4.52-11.78,14.51,14.51,0,0,1,11.06-4.84,14.8,14.8,0,0,1,11.14,4.84A16.75,16.75,0,0,1,422.26,62c0,5.09-1.53,9.2-4.6,12.27A14.93,14.93,0,0,1,406.69,78.66Zm0-29.7a6.78,6.78,0,0,0-5.89,2.82c-1.38,1.94-2.5,5.41-2.5,10.33s1.12,8.4,2.58,10.25a7.74,7.74,0,0,0,11.7,0c1.37-1.85,2.5-5.16,2.5-10.25,0-4.92-1.13-8.31-2.5-10.33A6.79,6.79,0,0,0,406.69,49Z"/><path class="cls-1" d="M459.31,77.45V58a44.28,44.28,0,0,0-.24-5.49,3.68,3.68,0,0,0-1.53-2.34,4.58,4.58,0,0,0-3.23-1.05C451,49.12,448,52,446,54.29V77.45h-7.19V44.52H446v4.6a14.13,14.13,0,0,1,10.24-4.6,11.33,11.33,0,0,1,6.54,1.86A8,8,0,0,1,466.33,52a10,10,0,0,1,.24,2.5V77.45Z"/><path class="cls-1" d="M170.14,93.61v9.6H168.4V95.13H163v8.08h-1.74v-9.6Z"/><path class="cls-1" d="M183.46,98.41a4.66,4.66,0,0,1-4.85,4.91,4.1,4.1,0,0,1-3.36-1.56v5h-1.74V93.61h1.67v1.52a4.1,4.1,0,0,1,3.43-1.62A4.66,4.66,0,0,1,183.46,98.41Zm-1.75,0a3.24,3.24,0,1,0-3.25,3.39A3.18,3.18,0,0,0,181.71,98.41Z"/><path class="cls-1" d="M185.09,98.41a5,5,0,1,1,5,4.91A4.79,4.79,0,0,1,185.09,98.41Zm8.23,0a3.24,3.24,0,1,0-6.47,0,3.24,3.24,0,1,0,6.47,0Z"/><path class="cls-1" d="M197.6,93.61h1.74v7l5.89-7h1.58v9.6h-1.74v-7l-5.88,7H197.6Z"/><path class="cls-1" d="M217.23,100.42c0,1.74-1.92,2.92-4.48,2.92a7.32,7.32,0,0,1-3.91-1.09l.52-1.32a6.43,6.43,0,0,0,3.37.92c1.63,0,2.7-.59,2.7-1.57s-.83-1.4-2.24-1.4h-1.76V97.63h1.63c1.29,0,2.1-.47,2.1-1.29s-1-1.38-2.45-1.38a7.14,7.14,0,0,0-3,.75l-.47-1.34a7.82,7.82,0,0,1,3.68-.89c2.33,0,4.06,1,4.06,2.61a2.34,2.34,0,0,1-1.74,2.12A2.3,2.3,0,0,1,217.23,100.42Z"/><path class="cls-1" d="M228.28,100.57c0,1.66-1.23,2.64-3.78,2.64h-4.63v-9.6h4.46c2.27,0,3.63.88,3.63,2.46a2.24,2.24,0,0,1-1.54,2.16A2.21,2.21,0,0,1,228.28,100.57Zm-6.7-2.83h2.61c1.32,0,2-.49,2-1.42s-.71-1.37-2-1.37h-2.61Zm5,2.72c0-1-.63-1.47-2.06-1.47h-2.9v2.88h2.79C225.8,101.87,226.54,101.44,226.54,100.46Z"/><path class="cls-1" d="M230.11,98.41a5,5,0,1,1,5,4.91A4.79,4.79,0,0,1,230.11,98.41Zm8.23,0a3.24,3.24,0,1,0-6.47,0,3.24,3.24,0,1,0,6.47,0Z"/><path class="cls-1" d="M252.32,101.69v3.75h-1.64v-2.23h-8v2.23H241v-3.75h.51c1.38-.07,1.62-2.41,1.74-4.84l.15-3.24h7.45v8.08Zm-8.6,0h5.39V95.13h-4.17L244.85,97C244.78,99,244.59,100.93,243.72,101.69Z"/><path class="cls-1" d="M253.69,98.41a4.81,4.81,0,0,1,5.08-4.9,4.28,4.28,0,0,1,3.91,2l-1.32.86A3,3,0,0,0,258.75,95a3.38,3.38,0,0,0,0,6.76,3,3,0,0,0,2.61-1.38l1.32.84a4.29,4.29,0,0,1-3.91,2.06A4.82,4.82,0,0,1,253.69,98.41Z"/><path class="cls-1" d="M272,95.13h-3.52v8.08H266.7V95.13h-3.51V93.61H272Z"/><path class="cls-1" d="M282.15,100.57c0,1.66-1.23,2.64-3.79,2.64h-4.62v-9.6h4.46c2.26,0,3.62.88,3.62,2.46a2.24,2.24,0,0,1-1.54,2.16A2.22,2.22,0,0,1,282.15,100.57Zm-6.71-2.83h2.61c1.32,0,2-.49,2-1.42s-.71-1.37-2-1.37h-2.61Zm5,2.72c0-1-.64-1.47-2.07-1.47h-2.9v2.88h2.79C279.66,101.87,280.41,101.44,280.41,100.46Z"/><path class="cls-1" d="M284,98.41a5,5,0,1,1,5,4.91A4.79,4.79,0,0,1,284,98.41Zm8.23,0a3.24,3.24,0,1,0-6.48,0,3.24,3.24,0,1,0,6.48,0Z"/><path class="cls-1" d="M311.13,101.69v3.75H309.5v-2.23h-8v2.23h-1.65v-3.75h.5c1.38-.07,1.62-2.41,1.74-4.84l.15-3.24h7.45v8.08Zm-8.59,0h5.38V95.13h-4.17L303.66,97C303.59,99,303.41,100.93,302.54,101.69Z"/><path class="cls-1" d="M322,99h-7.8a3.26,3.26,0,0,0,3.48,2.81,3.59,3.59,0,0,0,2.78-1.16l1,1.12a5.24,5.24,0,0,1-9-3.35,4.71,4.71,0,0,1,4.82-4.9,4.63,4.63,0,0,1,4.75,4.95A4.84,4.84,0,0,1,322,99Zm-7.8-1.25h6.17a3.1,3.1,0,0,0-6.17,0Z"/><path class="cls-1" d="M331.54,95.13H328v8.08h-1.74V95.13h-3.52V93.61h8.78Z"/><path class="cls-1" d="M332,98.41a4.8,4.8,0,0,1,5.07-4.9,4.31,4.31,0,0,1,3.92,2l-1.33.86A3,3,0,0,0,337.06,95a3.38,3.38,0,0,0,0,6.76,3,3,0,0,0,2.61-1.38l1.33.84a4.32,4.32,0,0,1-3.92,2.06A4.81,4.81,0,0,1,332,98.41Z"/><path class="cls-1" d="M347,99.15h-2v4.06h-1.74v-9.6H345v4.06h2l3.12-4.06H352l-3.65,4.62,3.9,5H350.2Z"/><path class="cls-1" d="M354.08,93.61h1.74v7l5.89-7h1.58v9.6h-1.74v-7l-5.88,7h-1.59Z"/><path class="cls-1" d="M372.66,103.21l-2.78-3.68-2.81,3.68h-1.94l3.79-4.91-3.6-4.69h1.94l2.64,3.46,2.63-3.46h1.9l-3.62,4.69,3.82,4.91Z"/><path class="cls-1" d="M385.07,99.15h-2v4.06h-1.74v-9.6h1.74v4.06h2l3.12-4.06h1.86l-3.64,4.62,3.9,5H388.3Z"/><path class="cls-1" d="M402.13,98.41a4.67,4.67,0,0,1-4.86,4.91,4.07,4.07,0,0,1-3.35-1.56v5h-1.75V93.61h1.67v1.52a4.11,4.11,0,0,1,3.43-1.62A4.67,4.67,0,0,1,402.13,98.41Zm-1.76,0a3.24,3.24,0,1,0-3.25,3.39A3.18,3.18,0,0,0,400.37,98.41Z"/><path class="cls-1" d="M403.76,98.41a5,5,0,1,1,5,4.91A4.79,4.79,0,0,1,403.76,98.41Zm8.23,0a3.24,3.24,0,1,0-6.48,0,3.24,3.24,0,1,0,6.48,0Z"/><path class="cls-1" d="M424.67,100.57c0,1.66-1.23,2.64-3.79,2.64h-4.62v-9.6h4.46c2.27,0,3.63.88,3.63,2.46a2.24,2.24,0,0,1-1.55,2.16A2.22,2.22,0,0,1,424.67,100.57ZM418,97.74h2.61c1.32,0,2-.49,2-1.42s-.71-1.37-2-1.37H418Zm5,2.72c0-1-.63-1.47-2.06-1.47H418v2.88h2.79C422.19,101.87,422.93,101.44,422.93,100.46Z"/><path class="cls-1" d="M434.93,97.41v5.8h-1.65v-1.27a3.57,3.57,0,0,1-3.15,1.38c-2.18,0-3.56-1.16-3.56-2.83s1-2.81,3.86-2.81h2.76v-.34c0-1.47-.85-2.32-2.57-2.32a4.87,4.87,0,0,0-3.05,1l-.73-1.3a6.4,6.4,0,0,1,4-1.24C433.44,93.51,434.93,94.78,434.93,97.41Zm-1.74,2.87V98.93h-2.68c-1.72,0-2.21.68-2.21,1.49s.79,1.56,2.12,1.56A2.79,2.79,0,0,0,433.19,100.28Z"/><path class="cls-1" d="M445.22,95.13h-3.51v8.08H440V95.13h-3.52V93.61h8.77Z"/><path class="cls-1" d="M445.69,98.41a5,5,0,1,1,5,4.91A4.79,4.79,0,0,1,445.69,98.41Zm8.23,0a3.24,3.24,0,1,0-6.47,0,3.24,3.24,0,1,0,6.47,0Z"/><path class="cls-1" d="M461.93,99.15h-2v4.06H458.2v-9.6h1.74v4.06h2l3.12-4.06H467l-3.65,4.62,3.9,5h-2Z"/><path class="cls-2" d="M12.57,76.44H125.48s6.7-.21,6.7,4.4H5.87C5.87,76.23,12.57,76.44,12.57,76.44Z"/><path class="cls-3" d="M12.57,76.44H37.09c11.8,1.73,66.64,3.14,95,3.51a4.18,4.18,0,0,1,.1.89H5.87C5.87,76.23,12.57,76.44,12.57,76.44Z"/><rect class="cls-4" y="80.84" width="138.05" height="18.87" transform="translate(138.05 180.55) rotate(-180)"/><path class="cls-5" d="M0,99.71V80.84H4.87c5.76,5.22,17.07,13.28,36.22,18.87Z"/><path class="cls-6" d="M120,83s15.13-.37,15.13,7.25-17.18,7.07-17.18,7.07H51.58s-12.23,0-20.94-3.75-20.93-9.54-13-9.76S104,82.33,120,83Z"/><path class="cls-2" d="M12.57,15.87H125.48s6.7-.22,6.7,4.39H5.87C5.87,15.65,12.57,15.87,12.57,15.87Z"/><path class="cls-3" d="M12.57,15.87H37.09c11.8,1.72,66.64,3.13,95,3.51a4,4,0,0,1,.1.88H5.87C5.87,15.65,12.57,15.87,12.57,15.87Z"/><rect class="cls-4" y="20.26" width="138.05" height="18.87" transform="translate(138.05 59.4) rotate(-180)"/><path class="cls-5" d="M0,39.13V20.26H4.87c5.76,5.22,17.07,13.28,36.22,18.87Z"/><path class="cls-6" d="M120,22.45s15.13-.36,15.13,7.25-17.18,7.07-17.18,7.07H51.58s-12.23,0-20.94-3.75-20.93-9.54-13-9.75S104,21.75,120,22.45Z"/><rect class="cls-1" x="71.85" width="2.93" height="20.18"/><path class="cls-7" d="M72.47,12.69S72.14,19,74.36,20v.19H71.85V0h.62Z"/><rect class="cls-1" x="63.38" width="2.93" height="20.18"/><path class="cls-7" d="M64,12.69S63.67,19,65.89,20v.19H63.38V0H64Z"/><rect class="cls-8" x="108.51" y="44.89" width="3.06" height="46.51" transform="translate(178.19 -41.89) rotate(90)"/><path class="cls-5" d="M96.17,69s-7.94.35-9.16-2h-.23v2.61H133.3V69Z"/><rect class="cls-8" x="108.51" y="29.49" width="3.06" height="46.51" transform="translate(162.79 -57.29) rotate(90)"/><path class="cls-5" d="M96.17,53.63s-7.94.34-9.16-2h-.23v2.6H133.3v-.64Z"/><rect class="cls-1" x="54.91" width="2.93" height="20.18"/><path class="cls-7" d="M55.53,12.69S55.2,19,57.42,20v.19H54.91V0h.62Z"/><rect class="cls-1" x="46.44" width="2.93" height="20.18"/><path class="cls-7" d="M47.06,12.69S46.73,19,49,20v.19H46.44V0h.62Z"/><rect class="cls-1" x="37.85" width="2.93" height="20.18"/><path class="cls-7" d="M38.47,12.69S38.14,19,40.36,20v.19H37.85V0h.62Z"/><rect class="cls-1" x="29.38" width="2.93" height="20.18"/><path class="cls-7" d="M30,12.69S29.67,19,31.89,20v.19H29.38V0H30Z"/><rect class="cls-1" x="20.91" width="2.93" height="20.18"/><path class="cls-7" d="M21.54,12.69S21.2,19,23.42,20v.19H20.91V0h.63Z"/><rect class="cls-1" x="12.44" width="2.93" height="20.18"/><path class="cls-7" d="M13.07,12.69S12.73,19,15,20v.19H12.44V0h.63Z"/><rect class="cls-4" width="85.57" height="4.22"/><path class="cls-5" d="M13,3.32S2,3.8.32.62H0v3.6H85.57v-.9Z"/><rect class="cls-8" x="81.77" width="5.87" height="113.96" transform="translate(169.42 113.96) rotate(-180)"/><path class="cls-5" d="M83,99s-.67,12.66,3.76,14.6V114h-5V0H83Z"/><rect class="cls-4" width="5.87" height="113.96"/><path class="cls-5" d="M1.24,99S.58,111.65,5,113.59V114H0V0H1.24Z"/><rect class="cls-8" x="132.18" width="5.87" height="113.96" transform="translate(270.23 113.96) rotate(-180)"/><path class="cls-5" d="M133.42,99s-.66,12.66,3.77,14.6V114h-5V0h1.24Z"/><polygon class="cls-9" points="64.77 86.92 66.64 89.25 65.78 92.11 68.58 91.06 71.04 92.76 70.89 89.77 73.28 87.96 70.39 87.17 69.41 84.35 67.76 86.85 64.77 86.92"/><polygon class="cls-9" points="3.24 29.1 6.85 30.34 7.87 34.02 10.16 30.97 13.97 31.13 11.79 28.01 13.12 24.44 9.47 25.55 6.49 23.18 6.42 27 3.24 29.1"/><path class="cls-9" d="M123.2,85a5.69,5.69,0,0,1,.69,2.69,5.75,5.75,0,0,1-5.75,5.75,5.63,5.63,0,0,1-2.82-.78A5.73,5.73,0,1,0,123.2,85Z"/><polygon class="cls-9" points="113.95 29.1 117.56 30.34 118.58 34.02 120.88 30.97 124.69 31.13 122.5 28.01 123.83 24.44 120.18 25.55 117.2 23.18 117.13 27 113.95 29.1"/><path class="cls-9" d="M15.21,85a5.7,5.7,0,0,1,.7,2.69,5.76,5.76,0,0,1-5.76,5.75,5.63,5.63,0,0,1-2.82-.78A5.73,5.73,0,1,0,15.21,85Z"/><path class="cls-9" d="M66.05,28a3.73,3.73,0,0,1-3.31,5.53A3.68,3.68,0,0,1,60.88,33a3.76,3.76,0,1,0,5.17-5Z"/></g></g></svg>